# AST/ASF file generated using VICON BodyLanguage
# -----------------------------------------------
:version 1.10
:name VICON
:units
  mass 1.0
  length 0.45
  angle deg
:documentation
   .ast/.asf automatically generated from VICON data using
   VICON BodyBuilder and BodyLanguage model FoxedUp or BRILLIANT.MOD
:root
   order TX TY TZ RX RY RZ
   axis XYZ
   position 0 0 0  
   orientation 0 0 0 
:bonedata
  begin
     id 1 
     name lhipjoint
     direction 0.630082 -0.636569 0.44472 
     length 2.82754 
     axis 0 0 0  XYZ
  end
  begin
     id 2 
     name lfemur
     direction 0.34202 -0.939693 0  
     length 7.26371  
     axis 0 0 20  XYZ
    dof rx ry rz
    limits (-160.0 20.0)
           (-70.0 70.0)
           (-60.0 70.0)
  end
  begin
     id 3 
     name ltibia
     direction 0.34202 -0.939693 0   
     length 7.88616   
     axis 0 0 20   XYZ
    dof rx
    limits (-10.0 170.0)
  end
  begin
     id 4 
     name lfoot
     direction 0.0603448 -0.165796 0.984312   
     length 1.77861   
     axis -90 7.62852e-016 20   XYZ
    dof rx rz
    limits (-45.0 90.0)
           (-70.0 20.0)
  end
  begin
     id 5 
     name ltoes
     direction 1.53577e-011 -4.21876e-011 1   
     length 0.902235   
     axis -90 7.62852e-016 20   XYZ
    dof rx
    limits (-90.0 20.0)
  end
  begin
     id 6 
     name rhipjoint
     direction -0.656778 -0.61817 0.431866   
     length 2.9117  
     axis 0 0 0  XYZ 
  end
  begin
     id 7 
     name rfemur
     direction -0.34202 -0.939693 0   
     length 6.81603   
     axis 0 0 -20   XYZ
    dof rx ry rz
    limits (-160.0 20.0)
           (-70.0 70.0)
           (-70.0 60.0)
  end
  begin
     id 8 
     name rtibia
     direction -0.34202 -0.939693 0   
     length 8.05997   
     axis 0 0 -20   XYZ
    dof rx
    limits (-10.0 170.0)
 end
 begin
     id 9 
     name rfoot
     direction -0.0862404 -0.236944 0.967688   
     length 1.84899  
     axis -90 -7.62852e-016 -20   XYZ
    dof rx rz
    limits (-45.0 90.0)
           (-20.0 70.0)
  end
  begin
     id 10 
     name rtoes
     direction -1.53561e-011 -4.21798e-011 1   
     length 0.931579   
     axis -90 -7.62852e-016 -20   XYZ
    dof rx
    limits (-90.0 20.0)
  end
  begin
     id 11 
     name lowerback
     direction -0.0110203 0.991769 -0.127564   
     length 2.05686   
     axis 0 0 0   XYZ
    dof rx ry rz
    limits (-20.0 45.0)
           (-30.0 30.0)
           (-30.0 30.0)
  end
  begin
     id 12 
     name upperback
     direction 0.0109719 0.99993 -0.00432479   
     length 2.06234   
     axis 0 0 0   XYZ
    dof rx ry rz
    limits (-20.0 45.0)
           (-30.0 30.0)
           (-30.0 30.0)
  end
  begin
     id 13 
     name thorax
     direction 0.0173308 0.998351 0.0547306   
     length 2.09856   
     axis 0 0 0   XYZ
    dof rx ry rz
    limits (-20.0 45.0)
           (-30.0 30.0)
           (-30.0 30.0)
  end
  begin
     id 14 
     name lowerneck
     direction -0.0311736 0.989033 0.144366   
     length 1.98151   
     axis 0 0 0   XYZ
    dof rx ry rz
    limits (-20.0 45.0)
           (-30.0 30.0)
           (-30.0 30.0)
  end
  begin
     id 15 
     name upperneck
     direction 0.0421057 0.975772 -0.214698   
     length 2.01457   
     axis 0 0 0   XYZ
    dof rx ry rz
    limits (-20.0 45.0)
           (-30.0 30.0)
           (-30.0 30.0)
  end
  begin
     id 16
     name head
     direction 0.0136911 0.995958 -0.0887718  
     length 2.03562  
     axis 0 0 0   XYZ
    dof rx ry rz
    limits (-20.0 45.0)
           (-30.0 30.0)
           (-30.0 30.0)
  end
  begin
     id 17 
     name lclavicle
     direction 0.915335 0.396201 0.0720134  
     length 4.16217  
     axis 0 0 0   XYZ
    dof ry rz
    limits (-20.0 10.0)
           (0.0 20.0)
  end
  begin
     id 18 
     name lhumerus
     direction 1 -4.48965e-011 6.383e-018   
     length 4.93042   
     axis -180 -30 -90   XYZ
    dof rx ry rz
    limits (-60.0 90.0)
           (-90.0 90.0)
           (-90.0 90.0)
  end
  begin
     id 19
     name lradius
     direction 1 -4.48972e-011 8.8689e-027   
     length 3.68177   
     axis -180 -30 -90   XYZ
    dof rx
    limits (-10.0 170.0)
  end
  begin
     id 20
     name lwrist
     direction 1 -4.48953e-011 1.17971e-026   
     length 1.84089   
     axis -7.69454e-015 90 90   XYZ
    dof ry
    limits (-180.0 0.0)
 end
  begin
     id 21 
     name lhand
     direction 1 -4.49027e-011 2.35802e-026   
     length 0.721479   
     axis -1.50533e-014 90 90   XYZ
    dof rx rz
    limits (-90.0 90.0)
           (-45.0 45.0)
  end
  begin
     id 22 
     name lfingers
     direction 1 -4.48915e-011 4.72027e-026   
     length 0.581675   
     axis -3.01059e-014 90 90   XYZ
    dof rx
    limits (0.0 90.0)
  end
  begin
     id 23
     name lthumb
     direction 0.707107 -6.34948e-011 0.707107   
     length 0.835172   
     axis -90 45 -5.12164e-014   XYZ
    dof rx rz
    limits (-45.0 45.0)
           (-45.0 45.0)
  end
  begin
     id 24 
     name rclavicle
     direction -0.882781 0.469197 0.0234974   
     length 3.95647  
     axis 0 0 0   XYZ 
    dof ry rz
    limits (-10.0 20.0)
           (-20.0 0.0)
  end
  begin
     id 25 
     name rhumerus
     direction -1 -4.48965e-011 -1.54906e-018  
     length 5.07905   
     axis -180 30 90   XYZ
    dof rx ry rz
    limits (-90.0 60.0)
           (-90.0 90.0)
           (-90.0 90.0)
  end
  begin
     id 26 
     name rradius
     direction -1 -4.48972e-011 5.47489e-027   
     length 3.54394   
     axis -180 30 90   XYZ
    dof rx
    limits (-10.0 170.0)
  end
  begin
     id 27 
     name rwrist
     direction -1 -4.48955e-011 1.17969e-026   
     length 1.77197   
     axis -7.69454e-015 -90 -90   XYZ
    dof ry
    limits (-180.0 0.0)
  end
  begin
     id 28
     name rhand
     direction -1 -4.48982e-011 2.35888e-026   
     length 0.681156   
     axis -1.50533e-014 -90 -90   XYZ
    dof rx rz
    limits (-90.0 90.0)
           (-45.0 45.0)
  end
  begin
     id 29
     name rfingers
     direction -1 -4.48955e-011 4.71877e-026   
     length 0.549165   
     axis -3.01059e-014 -90 -90   XYZ
    dof rx
    limits (0.0 90.0)
  end
  begin
     id 30
     name rthumb
     direction -0.707107 -6.3491e-011 0.707107   
     length 0.788495   
     axis -90 -45 5.12164e-014   XYZ
    dof rx rz
    limits (-45.0 45.0)
           (-45.0 45.0)
  end
:hierarchy
  begin
    root lhipjoint rhipjoint lowerback
    lhipjoint lfemur
    lfemur ltibia
    ltibia lfoot
    lfoot ltoes
    rhipjoint rfemur
    rfemur rtibia
    rtibia rfoot
    rfoot rtoes
    lowerback upperback
    upperback thorax
    thorax lowerneck lclavicle rclavicle
    lowerneck upperneck
    upperneck head
    lclavicle lhumerus
    lhumerus lradius
    lradius lwrist
    lwrist lhand lthumb
    lhand lfingers
    rclavicle rhumerus
    rhumerus rradius
    rradius rwrist
    rwrist rhand rthumb
    rhand rfingers
  end

#!OML:ASF H:\Bending\Project 1\Capture day 1\Session 1\Subject.ASF
:FULLY-SPECIFIED
:DEGREES
454
root -9.85596 18.0605 -16.3541 -156.768 85.3781 -161.688
lowerback 5.66167 -0.0455792 1.32569
upperback -1.69714 0.173588 2.28042
thorax -4.94154 0.0933412 1.60234
lowerneck -23.3102 -3.94801 -5.4287
upperneck 33.6442 -3.23206 0.863313
head 16.0246 -1.68505 0.719575
rclavicle -3.77691e-015 -4.21423e-014
rhumerus -46.2693 -4.94455 -73.4622
rradius 36.8168
rwrist 9.36618
rhand -15.8664 -17.3233
rfingers 7.12502
rthumb 10.3291 -47.0496
lclavicle -3.77691e-015 -4.21423e-014
lhumerus -35.5347 0.0549631 91.6552
lradius 27.3494
lwrist 15.8974
lhand -35.6592 9.40406
lfingers 7.12502
lthumb -8.78092 39.2014
rfemur 4.32153 -5.86498 16.4312
rtibia -1.59028e-014
rfoot -8.47822 -15.4604
rtoes 4.4247
lfemur -7.89202 -16.3195 -11.8203
ltibia 20.6254
lfoot -22.8256 12.5621
ltoes 0.238545
455
root -9.85031 18.0601 -16.3533 -156.151 85.41 -161.059
lowerback 5.61472 -0.0371732 1.35721
upperback -1.68725 0.186939 2.29921
thorax -4.90481 0.0995303 1.60255
lowerneck -23.2618 -3.93531 -5.41716
upperneck 33.6188 -3.21702 0.852742
head 15.9997 -1.67893 0.716766
rclavicle -2.23633e-015 7.15625e-015
rhumerus -46.2235 -4.52702 -73.7883
rradius 37.3534
rwrist 8.92889
rhand -15.7565 -17.514
rfingers 7.12502
rthumb 10.4351 -47.2351
lclavicle -2.23633e-015 7.15625e-015
lhumerus -35.5173 0.0581465 91.6946
lradius 27.3699
lwrist 15.9606
lhand -35.7952 9.46023
lfingers 7.12502
lthumb -8.91216 39.252
rfemur 4.34198 -5.81497 16.4673
rtibia -1.43125e-014
rfoot -8.53059 -15.4536
rtoes 4.71771
lfemur -7.85486 -16.2121 -11.7862
ltibia 20.6427
lfoot -22.8477 12.5036
ltoes 0.116245
456
root -9.84405 18.0598 -16.3522 -155.43 85.4381 -160.33
lowerback 5.55652 -0.0380123 1.39252
upperback -1.67828 0.187976 2.31935
thorax -4.86245 0.0995621 1.60321
lowerneck -23.219 -3.90251 -5.3374
upperneck 33.5946 -3.17623 0.778706
head 15.9723 -1.66273 0.68011
rclavicle -1.3418e-015 -2.46493e-014
rhumerus -46.1616 -4.11506 -74.1211
rradius 37.8633
rwrist 8.55978
rhand -15.7182 -17.7181
rfingers 7.12502
rthumb 10.472 -47.4373
lclavicle -1.3418e-015 -2.46493e-014
lhumerus -35.5079 0.0558883 91.7066
lradius 27.411
lwrist 16.0796
lhand -35.8624 9.4933
lfingers 7.12502
lthumb -8.97705 39.2823
rfemur 4.35731 -5.76517 16.5141
rtibia 6.36111e-015
rfoot -8.58114 -15.4412
rtoes 4.94493
lfemur -7.8132 -16.081 -11.7398
ltibia 20.6443
lfoot -22.8428 12.4397
ltoes -0.258515
457
root -9.83794 18.0598 -16.3511 -154.891 85.4672 -159.792
lowerback 5.495 -0.0476291 1.41444
upperback -1.67143 0.175898 2.33576
thorax -4.82018 0.0933937 1.60878
lowerneck -23.1954 -3.85429 -5.21307
upperneck 33.5776 -3.11233 0.65838
head 15.9498 -1.63809 0.620369
rclavicle 1.50082e-014 -1.11319e-014
rhumerus -46.0655 -3.75924 -74.4276
rradius 38.305
rwrist 8.30422
rhand -15.7356 -17.8365
rfingers 7.12502
rthumb 10.4552 -47.5565
lclavicle 1.50082e-014 -1.11319e-014
lhumerus -35.5022 0.0260194 91.7071
lradius 27.4715
lwrist 16.2412
lhand -35.8333 9.48508
lfingers 7.12502
lthumb -8.9489 39.2753
rfemur 4.36142 -5.72103 16.5458
rtibia -1.43125e-014
rfoot -8.61183 -15.4283
rtoes 5.03137
lfemur -7.77042 -15.9603 -11.7076
ltibia 20.6217
lfoot -22.8161 12.389
ltoes -0.733667
458
root -9.83268 18.06 -16.3502 -154.787 85.5041 -159.701
lowerback 5.43883 -0.0630617 1.40344
upperback -1.66788 0.15339 2.34711
thorax -4.78424 0.082852 1.62862
lowerneck -23.1965 -3.79855 -5.08288
upperneck 33.57 -3.03231 0.522837
head 15.9369 -1.60831 0.55604
rclavicle 8.59744e-015 2.06736e-014
rhumerus -45.93 -3.47957 -74.6822
rradius 38.6646
rwrist 8.17215
rhand -15.7687 -17.8182
rfingers 7.12502
rthumb 10.4233 -47.5399
lclavicle 8.59744e-015 2.06736e-014
lhumerus -35.4945 -0.0450014 91.72
lradius 27.538
lwrist 16.4188
lhand -35.7217 9.4325
lfingers 7.12502
lthumb -8.84123 39.2273
rfemur 4.35198 -5.6854 16.5384
rtibia -2.54444e-014
rfoot -8.61737 -15.4168
rtoes 4.99373
lfemur -7.72829 -15.8901 -11.7148
ltibia 20.5714
lfoot -22.7846 12.3743
ltoes -1.11407
459
root -9.82849 18.0603 -16.3497 -155.207 85.5517 -160.142
lowerback 5.39453 -0.0801541 1.35105
upperback -1.66849 0.125828 2.35624
thorax -4.75932 0.0708879 1.66994
lowerneck -23.2172 -3.74297 -4.98146
upperneck 33.5708 -2.94516 0.403193
head 15.9338 -1.57699 0.504662
rclavicle 1.49089e-016 4.77083e-015
rhumerus -45.766 -3.26715 -74.8733
rradius 38.9565
rwrist 8.14488
rhand -15.7831 -17.6781
rfingers 7.12502
rthumb 10.4094 -47.4004
lclavicle 1.49089e-016 4.77083e-015
lhumerus -35.4803 -0.163054 91.768
lradius 27.5918
lwrist 16.5852
lhand -35.5736 9.34899
lfingers 7.12502
lthumb -8.69836 39.1498
rfemur 4.33194 -5.65812 16.4835
rtibia -1.90833e-014
rfoot -8.60411 -15.4071
rtoes 4.90821
lfemur -7.68691 -15.8986 -11.7713
ltibia 20.4984
lfoot -22.7692 12.4102
ltoes -1.24248
460
root -9.82512 18.0606 -16.3497 -156.024 85.6053 -160.984
lowerback 5.36473 -0.0957363 1.26748
upperback -1.67346 0.0987218 2.36879
thorax -4.74717 0.0600859 1.73239
lowerneck -23.2444 -3.69166 -4.92366
upperneck 33.574 -2.85869 0.318119
head 15.9356 -1.54646 0.475406
rclavicle -4.57205e-015 1.82882e-014
rhumerus -45.5963 -3.09495 -75.0052
rradius 39.2123
rwrist 8.18668
rhand -15.7724 -17.4826
rfingers 7.12502
rthumb 10.4198 -47.2044
lclavicle -4.57205e-015 1.82882e-014
lhumerus -35.4581 -0.326359 91.8629
lradius 27.6181
lwrist 16.7231
lhand -35.4445 9.26109
lfingers 7.12502
lthumb -8.57371 39.067
rfemur 4.3086 -5.63765 16.394
rtibia 4.77083e-015
rfoot -8.5844 -15.3996
rtoes 4.85377
lfemur -7.64605 -15.9875 -11.8646
ltibia 20.4158
lfoot -22.7864 12.4913
ltoes -1.05385
461
root -9.82191 18.0608 -16.3499 -156.957 85.6542 -161.938
lowerback 5.34891 -0.109031 1.17841
upperback -1.68217 0.0753619 2.38994
thorax -4.74691 0.0515086 1.80661
lowerneck -23.2618 -3.64444 -4.90069
upperneck 33.5712 -2.77817 0.269367
head 15.9342 -1.51749 0.466692
rclavicle 9.0944e-015 -2.22639e-014
rhumerus -45.4456 -2.93271 -75.0969
rradius 39.4652
rwrist 8.2548
rhand -15.7608 -17.3138
rfingers 7.12502
rthumb 10.4309 -47.035
lclavicle 9.0944e-015 -2.22639e-014
lhumerus -35.4299 -0.527029 91.9999
lradius 27.6146
lwrist 16.8295
lhand -35.373 9.19814
lfingers 7.12502
lthumb -8.50471 39.0069
rfemur 4.29138 -5.62326 16.2986
rtibia -3.18055e-015
rfoot -8.57012 -15.3953
rtoes 4.86771
lfemur -7.60611 -16.1264 -11.9658
ltibia 20.3402
lfoot -22.8383 12.5907
ltoes -0.607936
462
root -9.81829 18.0606 -16.3498 -157.701 85.6866 -162.695
lowerback 5.34526 -0.121613 1.11334
upperback -1.69348 0.0558765 2.42124
thorax -4.75631 0.044454 1.87761
lowerneck -23.2577 -3.59908 -4.88906
upperneck 33.5536 -2.7073 0.246443
head 15.9217 -1.49013 0.469379
rclavicle 8.84592e-015 -7.15625e-015
rhumerus -45.3317 -2.76072 -75.1749
rradius 39.7366
rwrist 8.30782
rhand -15.784 -17.2287
rfingers 7.12502
rthumb 10.4085 -46.9511
lclavicle 8.84592e-015 -7.15625e-015
lhumerus -35.3998 -0.754408 92.1586
lradius 27.5943
lwrist 16.9151
lhand -35.3692 9.182
lfingers 7.12502
lthumb -8.5011 38.9909
rfemur 4.28797 -5.61619 16.2273
rtibia 1.27222e-014
rfoot -8.56729 -15.3956
rtoes 4.92752
lfemur -7.56894 -16.2626 -12.0432
ltibia 20.2855
lfoot -22.9087 12.6687
ltoes -0.0601426
463
root -9.81408 18.0601 -16.3491 -158.075 85.6949 -163.072
lowerback 5.35282 -0.135875 1.09285
upperback -1.70617 0.0383079 2.45871
thorax -4.77354 0.0372839 1.92988
lowerneck -23.2294 -3.55503 -4.86618
upperneck 33.5154 -2.65078 0.236895
head 15.8938 -1.46532 0.473275
rclavicle -8.44835e-015 -2.38542e-015
rhumerus -45.2596 -2.57723 -75.2641
rradius 40.0299
rwrist 8.31286
rhand -15.8613 -17.2345
rfingers 7.12502
rthumb 10.3339 -46.9606
lclavicle -8.44835e-015 -2.38542e-015
lhumerus -35.3709 -0.997106 92.3094
lradius 27.5792
lwrist 16.9953
lhand -35.4158 9.2177
lfingers 7.12502
lthumb -8.54604 39.0248
rfemur 4.30128 -5.6192 16.1981
rtibia -7.95139e-015
rfoot -8.57466 -15.4011
rtoes 4.97237
lfemur -7.53749 -16.3419 -12.0767
ltibia 20.2566
lfoot -22.9682 12.6904
ltoes 0.401029
464
root -9.80966 18.0594 -16.3476 -158.1 85.6782 -163.09
lowerback 5.37213 -0.153079 1.12038
upperback -1.71928 0.0206746 2.4936
thorax -4.79786 0.0286921 1.95257
lowerneck -23.1832 -3.51626 -4.8239
upperneck 33.4559 -2.61597 0.235532
head 15.8518 -1.44594 0.473106
rclavicle 5.41688e-015 1.11319e-014
rhumerus -45.2216 -2.39734 -75.3794
rradius 40.3301
rwrist 8.25211
rhand -15.9787 -17.2894
rfingers 7.12502
rthumb 10.2207 -47.0211
lclavicle 5.41688e-015 1.11319e-014
lhumerus -35.3443 -1.24377 92.4235
lradius 27.59
lwrist 17.0808
lhand -35.4832 9.29041
lfingers 7.12502
lthumb -8.61108 39.0948
rfemur 4.32831 -5.63447 16.2098
rtibia -1.74931e-014
rfoot -8.58605 -15.4116
rtoes 4.94612
lfemur -7.51519 -16.3307 -12.0656
ltibia 20.2499
lfoot -22.9871 12.6414
ltoes 0.628211
